<svg data-v-423bf9ae="" xmlns="http://www.w3.org/2000/svg" viewBox="0 0 447 104" class="iconLeft"><!----><!----><!----><g data-v-423bf9ae="" id="add43de7-c478-4cd3-81d3-033723640cb6" fill="black" transform="matrix(6.153846153846154,0,0,6.153846153846154,111.88430529374341,-25.198523117945754)"><path d="M7.34 17.18L6.34 17.18L4.79 13.89L2.37 13.89L2.37 17.18L1.46 17.18L1.46 8.43L4.76 8.43Q5.60 8.43 6.05 8.69Q6.51 8.95 6.70 9.55Q6.89 10.16 6.89 11.28L6.89 11.28Q6.89 12.45 6.61 13.04Q6.33 13.64 5.68 13.80L5.68 13.80L7.34 17.18ZM2.37 9.18L2.37 13.10L4.83 13.10Q5.46 13.10 5.70 12.98Q5.94 12.85 5.94 12.52L5.94 12.52L5.94 9.77Q5.94 9.44 5.70 9.31Q5.46 9.18 4.83 9.18L4.83 9.18L2.37 9.18ZM11.48 16.52Q12.04 16.52 12.57 16.45Q13.10 16.38 13.89 16.18L13.89 16.18L14.01 16.90Q13.57 17.08 12.81 17.19Q12.05 17.29 11.24 17.29L11.24 17.29Q10.21 17.29 9.72 17.00Q9.23 16.72 9.05 15.97Q8.88 15.23 8.88 13.68L8.88 13.68Q8.88 12.21 9.10 11.45Q9.32 10.70 9.89 10.38Q10.46 10.07 11.56 10.07L11.56 10.07Q12.64 10.07 13.20 10.23Q13.75 10.40 13.97 10.82Q14.20 11.24 14.20 12.07L14.20 12.07Q14.20 13.15 13.93 13.57Q13.66 14 12.82 14.13Q11.97 14.27 9.81 14.27L9.81 14.27L9.81 16.32Q10.46 16.52 11.48 16.52L11.48 16.52ZM11.03 10.91Q10.32 10.91 10.07 11.10Q9.81 11.28 9.81 11.82L9.81 11.82L9.81 13.52L12.12 13.52Q12.85 13.52 13.11 13.34Q13.37 13.16 13.37 12.63L13.37 12.63L13.37 10.91L11.03 10.91ZM19.12 10.07Q20.03 10.07 20.54 10.23Q21.04 10.40 21.25 10.78Q21.46 11.16 21.46 11.84L21.46 11.84L21.46 17.18L21.08 17.18L20.82 16.48Q20.33 16.90 19.72 17.09Q19.11 17.29 18.27 17.29L18.27 17.29Q17.15 17.29 16.70 16.84Q16.24 16.39 16.24 15.29L16.24 15.29Q16.24 14.21 16.49 13.78Q16.74 13.36 17.56 13.22Q18.37 13.09 20.43 13.09L20.43 13.09L20.57 13.09L20.57 11.03Q19.92 10.84 18.90 10.84L18.90 10.84Q17.81 10.84 16.67 11.17L16.67 11.17L16.55 10.46Q16.95 10.29 17.70 10.18Q18.45 10.07 19.12 10.07L19.12 10.07ZM19.39 16.51Q20.08 16.51 20.32 16.32Q20.57 16.13 20.57 15.60L20.57 15.60L20.57 13.83L18.26 13.83Q17.56 13.83 17.30 14.02Q17.05 14.21 17.05 14.73L17.05 14.73L17.05 16.51L19.39 16.51ZM28.34 7.80L29.25 7.64L29.25 17.18L28.87 17.18L28.63 16.65Q28.39 17.08 27.89 17.23Q27.38 17.39 26.40 17.39L26.40 17.39Q25.24 17.39 24.72 17.13Q24.21 16.87 24.02 16.12Q23.84 15.37 23.84 13.68L23.84 13.68Q23.84 12.12 24.01 11.38Q24.18 10.64 24.64 10.35Q25.10 10.07 26.07 10.07L26.07 10.07Q27.01 10.07 27.52 10.14Q28.04 10.22 28.34 10.46L28.34 10.46L28.34 7.80ZM28.34 16.24L28.34 10.88L25.45 10.88Q25.05 10.88 24.91 10.94Q24.78 11.00 24.78 11.21L24.78 11.21L24.78 16.58L27.65 16.58Q28.07 16.58 28.20 16.51Q28.34 16.45 28.34 16.24L28.34 16.24ZM35.77 12.68L37.97 17.18L36.90 17.18L35.91 15.08Q35.60 14.46 35.44 14.01Q35.28 13.55 35.28 13.06L35.28 13.06L33.07 13.06L33.07 17.18L32.16 17.18L32.16 8.43L33.07 8.43L33.07 12.31L35.28 12.31Q35.28 11.82 35.45 11.34Q35.62 10.86 35.91 10.29L35.91 10.29L36.83 8.43L37.90 8.43L35.77 12.68ZM41.92 10.07Q42.83 10.07 43.33 10.23Q43.83 10.40 44.04 10.78Q44.25 11.16 44.25 11.84L44.25 11.84L44.25 17.18L43.88 17.18L43.61 16.48Q43.12 16.90 42.51 17.09Q41.90 17.29 41.06 17.29L41.06 17.29Q39.94 17.29 39.49 16.84Q39.03 16.39 39.03 15.29L39.03 15.29Q39.03 14.21 39.28 13.78Q39.54 13.36 40.35 13.22Q41.16 13.09 43.22 13.09L43.22 13.09L43.36 13.09L43.36 11.03Q42.71 10.84 41.69 10.84L41.69 10.84Q40.60 10.84 39.47 11.17L39.47 11.17L39.34 10.46Q39.75 10.29 40.49 10.18Q41.24 10.07 41.92 10.07L41.92 10.07ZM42.18 16.51Q42.87 16.51 43.11 16.32Q43.36 16.13 43.36 15.60L43.36 15.60L43.36 13.83L41.05 13.83Q40.35 13.83 40.10 14.02Q39.84 14.21 39.84 14.73L39.84 14.73L39.84 16.51L42.18 16.51ZM47.50 10.18L47.89 11.35Q48.59 10.74 49.03 10.42Q49.46 10.11 49.77 9.97L49.77 9.97L49.90 10.86Q48.83 11.24 48.02 11.89L48.02 11.89L48.02 17.18L47.11 17.18L47.11 10.18L47.50 10.18ZM54.32 10.85L52.98 10.85L52.98 16.48Q53.86 16.53 54.03 16.53L54.03 16.53L53.96 17.16Q53.26 17.29 52.84 17.29L52.84 17.29Q52.07 17.29 52.07 16.41L52.07 16.41L52.07 10.85L50.99 10.85L50.99 10.18L52.07 10.18L52.07 8.55L52.98 8.32L52.98 10.18L54.32 10.18L54.32 10.85Z"></path></g><!----><g data-v-423bf9ae="" id="7a35af7e-d041-41db-9f49-d25f0995a07c" transform="matrix(1.0730730692545574,0,0,1.0730730692545574,-2.6536821168701934,-0.9419155333268208)" stroke="none" fill="black"><path d="M65.454 3.129c-.026-.735-.647-1.442-1.385-1.417l-13.348.473c-.738.026-1.307.858-1.281 1.597l.321 9.046 16.017-.569-.324-9.13zM49.952 18.166l16.016-.566 2.452 69.408-16.017.566zM52.745 97.213c.026.73.636 1.096 1.375 1.074l13.348-.475c.738-.026 1.317-.517 1.292-1.252l-.149-4.216-16.016.563.15 4.306zM3 96.743c0 .735.597 1.336 1.335 1.336H17.69c.738 0 1.336-.601 1.336-1.336V39.314H3v57.429zM19.027 13.938c0-.738-.598-1.335-1.336-1.335H4.336c-.738 0-1.336.598-1.336 1.335v9.349h16.027v-9.349zM45.738 24.753c0-.738-.597-1.335-1.335-1.335H25.705c-.738 0-1.335.597-1.335 1.335v9.219h21.369v-9.219zM24.37 44.657v52.086c0 .735.597 1.336 1.335 1.336h18.698c.738 0 1.335-.601 1.335-1.336V44.657H24.37zM81.102 96.926a1.335 1.335 0 001.513 1.138l13.22-1.879c.73-.104 1.252-.673 1.153-1.408l-8.833-62.25-15.87 2.254 8.817 62.145zM86.09 17.979a1.33 1.33 0 00-1.508-1.132l-13.225 1.875c-.73.102-1.252.673-1.148 1.403l1.325 9.362 15.87-2.251-1.314-9.257z"></path></g><!----></svg>